<svg width="320" height="243" viewBox="0 0 320 243" fill="none" xmlns="http://www.w3.org/2000/svg">
<path d="M178.109 0.312658C178.223 0.497375 189.775 20.0489 203.771 43.7637C217.781 67.4784 229.304 86.9731 229.375 87.0584C229.489 87.1862 230.114 87.2431 231.606 87.2431C236.21 87.2431 247.151 87.6693 252.294 88.0388C256.827 88.3656 260.01 88.8487 260.251 89.2465C260.294 89.3034 260.521 90.1133 260.749 91.0369C262.027 96.0811 263.974 100.528 266.02 103.086C267.299 104.663 268.947 105.743 270.425 105.942L271.064 106.027L272.855 109.253L274.645 112.464L288.655 112.507L302.665 112.535V113.331C302.665 115.448 302.338 120.691 302.068 122.979C301.642 126.474 301.642 130.239 302.054 132.172C302.466 134.076 303.162 135.482 304.143 136.378C305.464 137.585 305.535 137.585 311.432 137.656L316.576 137.699L317.201 138.267C318.082 139.035 318.622 139.944 319.147 141.493C319.758 143.34 320 145.315 320 148.782V151.723L319.147 152.036C318.679 152.206 318.267 152.391 318.238 152.448C318.21 152.491 318.267 153.4 318.366 154.451C318.465 155.503 318.522 156.398 318.494 156.426C318.451 156.469 314.331 156.824 309.301 157.236C304.285 157.648 300.164 157.989 300.136 157.989C300.122 158.004 300.107 158.473 300.107 159.041V160.092L298.005 160.192C294.296 160.348 291.27 161.002 289.11 162.082C287.874 162.693 287.703 162.821 286.779 163.716C285.884 164.597 285.359 165.62 285.174 166.842C285.089 167.325 284.463 172.568 283.753 178.465C282.403 189.818 282.176 191.579 281.067 199.707C279.831 208.715 279.121 215.863 279.362 216.9C279.632 218.093 280.542 218.164 282.105 217.099C283.284 216.317 284.051 216.104 284.748 216.403C285.16 216.573 285.43 216.985 285.344 217.369C285.33 217.468 285.131 217.852 284.89 218.207C284.407 218.989 284.378 219.415 284.762 219.955C285.543 221.049 285.941 222.711 285.728 224.033C285.387 226.207 282.9 228.835 280.599 229.432C279.178 229.802 277.217 229.546 275.597 228.779C272.968 227.557 272.13 225.354 273.224 222.583C274.062 220.495 273.778 219.33 272.258 218.619C271.775 218.392 271.349 218.108 271.306 218.008C271.206 217.752 271.633 217.298 272.244 216.971L272.741 216.729L272.301 216.502C272.045 216.36 271.292 216.232 270.51 216.175L269.16 216.076L269.089 215.351C269.047 214.953 268.038 204.268 266.859 191.608L264.713 168.589L264.287 167.708C264.031 167.197 263.647 166.657 263.377 166.444C262.44 165.733 261.971 165.677 256.529 165.677H251.513V191.21V216.729L252.877 218.136C254.511 219.827 254.966 220.679 254.98 222.086L254.994 223.01L254.284 223.095C253.346 223.209 253.09 223.322 252.991 223.734C252.863 224.232 253.417 224.971 254.397 225.638C254.852 225.951 255.463 226.235 255.747 226.292C256.017 226.349 257.182 226.349 258.305 226.292C260.749 226.192 261.985 226.349 262.61 226.875C263.107 227.301 263.164 227.883 262.724 228.281C262.383 228.58 261.26 228.651 259.925 228.438C259.228 228.324 259.186 228.324 259.186 228.622C259.186 229.091 258.418 229.333 256.898 229.333C255.918 229.333 255.221 229.432 254.17 229.716L252.763 230.086L248.969 229.929C246.483 229.816 245.034 229.802 244.707 229.887C244.096 230.072 232.004 229.929 231.365 229.731C230.555 229.489 230.427 228.764 231.123 228.224L231.464 227.954L231.521 222.214C231.549 219.06 231.535 215.706 231.492 214.768L231.393 213.063L226.008 204.51C223.038 199.792 220.594 196.055 220.58 196.197C220.552 196.325 219.841 203.217 218.974 211.5C218.122 219.784 217.369 226.803 217.312 227.088C217.212 227.514 216.942 227.827 215.777 228.85L214.356 230.086L216.303 230C218.52 229.915 218.719 229.844 220.168 228.679C220.722 228.239 221.319 227.827 221.504 227.755C222.64 227.329 223.521 227.798 223.521 228.835C223.521 229.574 223.251 229.944 222.228 230.611C221.432 231.123 221.404 231.151 221.759 231.237C222.228 231.365 223.308 232.373 223.734 233.098C224.246 233.965 224.558 235.471 224.473 236.65C224.246 239.748 222.242 241.552 218.079 242.405C217.113 242.604 216.644 242.646 215.948 242.547C213.035 242.135 210.946 240.714 210.435 238.824C210.364 238.526 210.278 237.062 210.25 235.556C210.207 232.601 210.094 232.004 209.454 231.322C209.17 231.024 208.914 230.924 208.218 230.839C206.882 230.683 206.854 230.185 208.104 229.077C209.397 227.94 208.701 227.329 205.689 226.946C204.95 226.86 204.836 226.803 204.737 226.491C204.68 226.292 203.742 214.257 202.648 199.735L200.659 173.349L200.034 172.383C197.462 168.405 193.697 165.421 190.13 164.526C189.107 164.256 188.695 164.227 187.217 164.312C186.279 164.355 185.356 164.412 185.171 164.426C184.83 164.469 184.816 164.412 184.475 162.522L184.12 160.561L173.804 160.533L163.488 160.49L163.446 157.592L163.417 154.693L162.451 154.792C161.925 154.849 161.286 154.92 161.044 154.963C160.675 155.034 160.561 154.991 160.49 154.792C159.95 153.144 158.444 151.411 156.924 150.643C155.688 150.018 154.181 149.635 152.618 149.535C151.354 149.464 57.0063 146.21 56.1254 146.21H55.7275L55.6849 148.015L55.6423 149.834L49.5751 149.876L43.5078 149.905L43.3515 150.473C43.2805 150.786 43.1384 151.311 43.0531 151.638C42.9821 151.979 42.8684 152.363 42.84 152.505C42.7974 152.633 42.3711 152.945 41.888 153.201C38.7336 154.778 36.446 156.938 35.153 159.51L34.5136 160.803L32.5811 184.759L30.6345 208.73H29.5973C29.0431 208.73 28.5742 208.772 28.5742 208.829C28.5742 208.872 28.9579 209.383 29.4268 209.937L30.2651 210.96L28.6453 212.055L27.0112 213.134L27.0965 214.527C27.2528 217.056 26.7271 218.832 25.4625 220.111C24.823 220.736 24.4678 220.964 23.7148 221.219C22.7201 221.546 21.2566 221.631 19.7505 221.447C19.2673 221.39 18.8411 221.404 18.6706 221.489C18.1164 221.788 16.9371 221.049 14.7205 218.989L13.6122 217.966L13.7827 216.8C14.2942 213.49 15.7009 210.918 17.4202 210.136C18.3722 209.696 20.0062 209.795 21.3845 210.378C21.5408 210.435 21.214 209.895 20.5888 209.071L19.5231 207.664L17.5196 184.361C16.4256 171.545 15.4878 160.476 15.4451 159.78C15.3173 157.634 14.7063 156.085 13.4985 154.807C12.4613 153.698 10.6283 152.888 9.15056 152.888C8.11331 152.888 8.11331 152.888 8.11331 151.311C8.11331 150.061 8.08489 149.905 7.85755 149.905C7.72967 149.905 6.43665 150.061 4.98734 150.246C3.53802 150.43 2.31605 150.558 2.27343 150.53C2.2308 150.501 1.69086 149.166 1.09408 147.574L-7.40308e-06 144.661L0.369426 128.35C0.568351 119.384 0.781486 111.995 0.838321 111.952C0.895157 111.896 13.7259 111.725 29.3557 111.555C56.3527 111.27 66.029 111.128 65.2333 111C65.0344 110.972 63.443 110.631 61.6811 110.247C48.6941 107.391 38.5915 103.384 33.7463 99.1502C32.9222 98.4397 6.40823 66.9243 6.22352 66.4412C5.99617 65.8586 5.81146 63.6136 5.89671 62.4769C6.40823 55.6708 11.7224 51.2518 21.1145 49.8167C23.3879 49.4615 104.28 40.8082 106.866 40.6377C115.164 40.0835 123.277 39.0321 127.596 37.9238C130.353 37.2133 132.3 36.105 132.115 35.352C132.072 35.2099 127.81 28.3469 122.638 20.1057C117.48 11.8503 113.217 5.01582 113.174 4.91636C113.132 4.78848 113.558 4.56114 114.496 4.1917L115.888 3.65176L146.224 1.83302C162.906 0.824181 176.859 0.0142702 177.228 6.12025e-05C177.783 6.12025e-05 177.939 0.056897 178.109 0.312658ZM174.728 53.3263L165.407 86.1064L165.875 87.9962L166.359 89.8859L162.82 100.884C160.888 106.937 159.297 111.924 159.297 111.952C159.297 112.052 161.172 111.853 161.272 111.739C161.343 111.668 162.934 106.795 164.824 100.898L168.277 90.1985L167.907 88.1667L167.538 86.149L176.191 53.9231L184.844 21.6971L184.475 21.0862C184.262 20.7451 184.091 20.4894 184.077 20.5036C184.063 20.5178 179.857 35.2809 174.728 53.3263ZM218.363 88.4082C218.122 88.5929 218.15 88.664 218.804 89.6586C219.173 90.2412 220.381 91.9747 221.475 93.495C222.569 95.0154 223.777 96.7062 224.161 97.2604C224.544 97.8003 225.283 98.795 225.809 99.4628C227.528 101.679 228.082 103.029 227.77 104.365C227.628 104.976 227.443 105.232 226.491 106.169L225.383 107.249L227.159 110.318L228.949 113.388H229.802C230.526 113.388 230.64 113.359 230.569 113.16C230.526 113.032 229.688 111.512 228.707 109.764C227.727 108.017 226.931 106.539 226.931 106.454C226.931 106.383 227.031 106.24 227.159 106.141C227.542 105.814 228.054 104.805 228.281 103.896C228.48 103.157 228.48 102.873 228.352 102.205C228.068 100.855 226.789 98.596 224.715 95.7685C223.663 94.3191 221.958 91.9747 220.921 90.5538C218.974 87.8541 219.031 87.9109 218.363 88.4082ZM233.709 118.247C233.766 120.464 233.808 122.51 233.794 122.794C233.794 123.135 233.567 123.703 233.197 124.328C232.53 125.508 232.359 126.062 232.174 127.724C231.691 132.342 233.737 137.997 236.764 140.399C238.725 141.962 240.231 142.289 246.227 142.459C249.751 142.544 249.822 142.559 250.646 142.942C251.669 143.425 252.536 144.193 253.047 145.059L253.431 145.713V151.212V156.725H254.809H256.173L256.273 155.517C256.429 153.698 256.259 146.537 256.045 145.798C255.832 145.017 254.511 143.582 253.531 143.042C252.124 142.274 251.527 142.203 246.54 142.104C241.368 142.004 241.538 142.033 239.947 140.896C235.784 137.898 234.547 132.442 236.409 125.252C236.608 124.471 236.778 123.732 236.778 123.618C236.778 123.504 236.778 121.345 236.764 118.815L236.736 114.24H235.158H233.581L233.709 118.247ZM283.483 145.713C269.842 146.452 258.305 147.091 257.836 147.134L256.983 147.219V150.913L256.969 154.608L257.694 154.522C258.077 154.48 271.377 153.485 287.248 152.306C303.106 151.141 316.107 150.16 316.121 150.132C316.149 150.118 316.093 149.734 316.007 149.294L315.837 148.498L314.473 148.455L313.109 148.413L313.066 147.66L313.023 146.921H312.242H311.475V145.542V144.178L309.869 144.264C309.002 144.32 297.124 144.974 283.483 145.713ZM235.357 170.749C235.414 172.611 235.528 180.013 235.613 187.203L235.769 200.275L236.338 201.242C236.65 201.782 236.92 202.194 236.934 202.165C236.963 202.137 236.764 194.89 236.508 186.066C236.252 177.228 236.039 169.456 236.039 168.774C236.025 167.509 236.011 167.481 235.4 167.396C235.329 167.382 235.315 168.788 235.357 170.749ZM242.717 167.893C242.675 167.936 243.13 219.003 243.186 219.06C243.201 219.074 243.627 218.974 244.138 218.832C244.792 218.648 245.062 218.505 245.105 218.307C245.133 218.164 244.948 206.698 244.678 192.844L244.209 167.652L243.485 167.737C243.101 167.794 242.746 167.865 242.717 167.893ZM232.359 180.795L232.331 193.711L233.169 195.217C233.638 196.041 234.121 196.851 234.249 197.007C234.462 197.277 234.476 197.249 234.405 196.581C234.363 196.183 234.292 190.173 234.249 183.225C234.206 176.262 234.135 169.939 234.093 169.158L234.007 167.737L233.197 167.808L232.402 167.879L232.359 180.795ZM228.281 167.95C226.164 168.291 224.388 169.698 223.365 171.829C222.399 173.847 222.072 172.88 226.917 182.528L231.194 191.04L231.123 180.667C231.08 174.955 231.009 169.769 230.967 169.129L230.881 167.964L230.441 167.907C229.574 167.808 229.134 167.808 228.281 167.95ZM221.447 185.597L220.509 193.938L226.079 202.478C229.148 207.167 231.663 211.003 231.677 210.975C231.691 210.946 231.62 207.238 231.521 202.719L231.336 194.507L226.903 185.74C224.473 180.923 222.456 177.044 222.441 177.115C222.413 177.2 221.972 181.008 221.447 185.597ZM232.629 204.041C232.686 207.749 232.743 211.273 232.757 211.856V212.921L233.908 214.598C234.547 215.522 235.073 216.26 235.101 216.232C235.116 216.204 235.016 212.822 234.888 208.715L234.647 201.242L233.595 199.238C233.013 198.144 232.544 197.249 232.53 197.263C232.515 197.277 232.558 200.332 232.629 204.041ZM235.997 210.96L236.053 218.818H236.537H237.02V217.568C237.02 216.886 236.92 213.703 236.807 210.506C236.622 205.206 236.565 204.609 236.295 203.856C236.125 203.401 235.982 203.06 235.968 203.075C235.954 203.103 235.968 206.655 235.997 210.96Z" fill="white" fill-opacity="0.9"/>
</svg>
